<svg width="50" height="50" xmlns="http://www.w3.org/2000/svg" xmlns:xlink="http://www.w3.org/1999/xlink" overflow="hidden"><defs><clipPath id="clip0"><rect x="42" y="68" width="50" height="50"/></clipPath></defs><g clip-path="url(#clip0)" transform="translate(-42 -68)"><path d="M60.1771 81.5417 73.7188 81.5417 73.7188 83.625 60.1771 83.625Z"/><path d="M60.1771 85.7083 73.7188 85.7083 73.7188 87.7917 60.1771 87.7917Z"/><path d="M60.1771 89.875 73.7188 89.875 73.7188 91.9583 60.1771 91.9583Z"/><path d="M85.2292 111.542 74.8125 101.646 85.2292 91.75 85.2292 111.542ZM51.4792 112.792 61.7917 103.052 62.5208 102.375C65.3333 99.7188 69.7604 99.7188 72.5729 102.375L73.3021 103.052 83.5625 112.792 51.4792 112.792ZM49.8125 91.6979 60.2292 101.594 49.8125 111.49 49.8125 91.6979ZM57.1042 78.4167 77.9375 78.4167 77.9375 95.7604 73.25 100.24C69.8646 97.6354 65.1771 97.6354 61.7917 100.24L57.1042 95.7604 57.1042 78.4167ZM81.0625 79.8229 81.0625 75.2917 73.7708 75.2917 67.5208 70.0833 61.2708 75.2917 53.9792 75.2917 53.9792 79.875 46.6875 86.8021 46.6875 115.917 88.3542 115.917 88.3542 86.8021 81.0625 79.8229Z"/></g></svg>